<!DOCTYPE svg PUBLIC "-//W3L//DTD SVG 1.1//EN" 
"http://www.w3.org/Graphics/SVG/1.1/DTD/svg11.dtd">

<svg width="100%" height="100%" version="1.1"
xmlns="http://www.w3.org/2000/svg" xmlns:xlink="http://www.w3.org/1999/xlink">

<script type="text/javascript">
var planeTypes=[
  // array
];
var planeImages=[
  // array of images (relative to base URL) corresponding to planeTypes
];
var planes=new Array(1000);
window.addEventListener("load",function(){

},false);
//function startMotion(){
//  document.getElementById("airplane").childNodes[1].beginElement();
//}
function Plane(type,entrance,angle) {
  this.type=type;
  this.entrance=entrance;
  this.angle=angle;
  this.id=this.generateId();
  var path=document.createElement("path");
  var plane=document.createElement("image");
  plane.setAttribute("xlink:href",planeImages[this.type]);
}
Plane.prototype.launch=function() {
  if(!(this.type)||!(this.entrance)||!(this.angle))
    throw new Error("Tried to launch plane without all arguments");
  
}
Planes.prototype.generateId() {
  for (i=0;i<planes.length;i++) {
    if (typeof planes[i]==undefined) {
      planes[i]=this;
      break;
    }
  }
  if (i<999)
    this.id=i;
  else {
    throw new Error("1000 planes on field. Aborting game!");
    alert("Error: 1000 planes on field. Aborting game!");
    parent.closeGame();
  }
}
//function parsePath(planePath) {
//  if (typeof planePath!="string")
//    throw new TypeError("Expected String");
//  if (/^M?(\d+\s+\d+(\s+L)?)+$/igm.test(planePath)!=true)
//    throw new SyntaxError("Not a valid Deplaner Plane Path");
//  planePath=planePath.substring(1);
//  planePath=planePath.replace(/\s+/gm,",");
//  planePath=planePath.split(/\,L/igm); //Now an Array!
//  return planePath;
//}
</script>





<path d="M137 90 L137 90 L138 90 L139 89 L141 89 L143 88 L144 87 L146 87 L147 86 L149 86 L151 86 L152 86 L153 85 L154 85 L154 84 L155 84 L156 84 L157 84   L157 83 L158 83 L159 83 L160 83 L160 82 L161 82 L162 82 L163 82 L164 81 L165 80 L166 80 L167 80 L168 80 L169 79 L170 79 L171 79 L172 78 L173 78 L174 78  L175 78 L176 78 L177 78 L178 78 L179 78 L180 78 L181 78 L182 77 L183 77 L184 77 L185 77 L186 77 L187 77 L188 77 L189 77 L190 77 L191 77 L192 77 L193 77 L194 77 L194 76 L196 76 L197 76 L199 76 L200 76 L201 76 L202 76 L204 76 L205 76 L207 76 L208 76 L210 76 L211 76 L212 76 L213 76 L214 76 L215 76 L216 76  L216 77 L217 77 L218 77 L219 78 L219 79 L221 79 L222 79 L224 81 L225 81 L226 81 L227 82 L227 83 L228 83 L229 83 L229 85 L230 85 L230 86 L231 86 L232 87  L233 87 L233 88 L233 89 L233 90 L234 90 L234 91 L234 92 L235 92 L236 93 L236 94 L236 95 L237 96 L237 97 L237 98 L238 99 L238 100 L239 101 L239 102 L239 103  L239 104 L240 105 L240 106 L240 107 L240 108 L240 109 L240 110 L240 111 L241 111 L241 112 L241 113 L242 113 L242 114 L242 115 L242 116 L242 117 L242 118 L242 119 L242 120 L242 121 L242 122 L242 123 L242 124 L242 125 L242 126 L243 126 L243 127 L243 128 L243 129 L243 130 L243 131 L243 132 L243 133 L243 134 L243 135 L243 136 L242 136 L242 137 L241 138 L241 139 L240 139 L240 141 L239 141 L239 142 L238 143 L238 144 L237 145 L237 146 L236 147 L235 147 L235 148 L235 149 L234 150 L232 151 L231 152 L230 153 L229 154 L228 155 L227 155 L226 156 L225 156 L224 156 L224 157 L222 157 L222 158 L221 158 L219 158 L218 158 L217 158 L216 158  L215 158 L214 158 L214 157 L213 157 L212 156 L211 156 L210 155 L210 154 L209 152 L208 150 L207 149 L207 148 L206 146 L205 145 L205 144 L205 143 L204 142 L204 140 L204 139 L204 138 L205 137 L205 136 L205 135 L206 135 L207 134 L207 133 L208 132 L209 132 L209 131 L210 131 L211 131 L211 130 L212 130 L213 130 L214 130  L215 130 L217 130 L218 130 L219 130 L220 130 L221 130 L222 130 L222 131 L223 131 L224 131 L225 132 L225 133 L226 133 L227 133 L227 134 L228 135 L228 136 L229 137 L229 139 L230 140 L231 141 L231 142 L231 143 L231 144 L231 146 L231 147 L231 148 L231 149 L231 150 L231 151 L231 152 L231 153 L230 155 L230 156 L229 156  L229 157 L229 158 L228 159 L228 160 L227 161 L226 162 L226 163 L225 163 L225 164 L224 165 L223 166 L223 167 L222 167 L221 168 L221 169 L220 169 L219 170 L218 171 L216 172 L215 173 L214 174 L212 174 L210 176 L209 176 L207 176 L206 177 L204 177 L203 178 L202 178 L201 178 L200 178 L198 178 L197 178 L196 178 L195 178  L193 178 L191 178 L190 178 L188 177 L187 177 L185 177 L183 175 L181 174 L179 173 L177 171 L173 170 L172 168 L170 167 L167 166 L166 164 L164 162 L164 161 L163 159 L162 158 L162 157 L161 156 L161 155 L160 154 L160 153 L160 152 L160 151 L160 150 L160 149 L160 148 L161 147 L162 146 L162 145 L163 145 L163 144 L164 144  L165 143 L166 143 L166 142 L167 142 L168 142 L168 141 L169 141 L170 141 L172 140 L173 139 L174 139 L176 139 L177 138 L178 138 L180 137 L181 137 L183 137 L184 136 L185 136 L186 136 L186 135 L187 135 L188 135 L189 135 L190 135 L190 134 L191 134 L192 134 L193 134 L194 134 L195 133 L196 133 L197 133 L199 132 L200 132  L202 131 L203 131 L204 131 L205 131 L206 131 L206 130 L207 130 L208 130 L209 130 L211 129 L212 129 L213 128 L215 128 L216 128 L217 128 L219 127 L220 126 L221 126 L222 126 L223 125 L225 125 L225 124 L226 124 L228 124 L230 123 L231 122 L232 122 L233 122 L234 121 L235 121 L236 120 L237 120 L238 119 L239 119 L240 118  L241 118 L242 117 L243 117 L244 117 L245 116 L246 116 L246 115 L247 114 L248 114 L249 113 L250 113 L250 112 L251 111 L252 110 L253 109 L253 108 L254 107 L254 106 L255 105 L255 104 L256 104 L256 102 L257 101 L257 100 L257 99 L257 98 L258 96 L259 95 L259 94 L259 93 L259 91 L259 90 L259 89 L259 88 L259 87 L258 86  L258 85 L258 83 L257 82 L256 81 L255 79 L255 77 L254 76 L253 74 L253 73 L251 70 L250 69 L250 67 L249 67 L249 66 L248 65 L247 64 L246 64 L245 64 L245 63  L244 63 L243 63 L242 62 L240 61 L237 60 L234 60 L230 59 L227 58 L225 57 L223 57 L221 56 L220 55 L219 55 L218 55 L217 55 L216 55 L213 54 L210 54 L208 54  L205 54 L202 54 L200 53 L198 53 L195 53 L194 52 L193 52 L192 52 L191 52 L190 52 L189 52 L188 52 L187 52 L186 52 L185 52 L184 51 L183 51 L181 51 L181 50  L180 50 L179 50 L178 50 L177 50 L176 49 L174 48 L171 48 L170 48 L169 47 L167 46 L167 45 L166 45 L166 44 L166 43 L167 42 L167 41 L168 41 L169 41 L169 40  L170 40 L171 39 L172 39 L173 39 L174 38 L175 38 L176 38 L177 38 L178 38 L179 38 L180 38 L181 38 L182 38 L182 39 L183 39 L184 39 L184 40 L186 40 L186 41  L187 41 L188 41 L189 42 L190 43 L191 43 L192 45 L193 45 L193 46 L193 47 L194 47 L195 47 L195 48 L196 49 L197 49 L198 52 L199 54 L200 56 L201 58 L202 59  L203 61 L203 62 L204 63 L204 64 L204 65 L204 66 L205 66 L205 67 L205 68 L205 69 L205 70 L205 71 L206 72 L206 73 L206 74 L206 75 L206 76 L206 77 L206 79  L206 80 L206 81 L206 82 L206 85 L206 87 L205 89 L204 91 L204 93 L203 95 L202 96 L202 99 L201 100 L200 102 L199 104 L199 105 L198 106 L198 107 L197 108 L197 109 L196 109 L196 110 L195 112 L195 114 L193 114 L193 116 L192 117 L191 118 L190 120 L188 122 L186 124 L184 127 L183 128 L180 131 L178 133 L176 134 L175 136  L173 137 L171 139 L170 140 L168 141 L167 143 L166 143 L164 144 L163 145 L161 146 L160 147 L159 147 L158 147 L158 148 L157 148 L156 148 L155 149 L154 149 L152 149 L150 150 L148 151 L146 152 L142 152 L140 152 L138 153 L136 154 L134 154 L131 155 L128 155 L127 155 L126 155 L123 155 L122 155 L120 155 L118 156 L117 156  L115 156 L112 156 L110 156 L107 156 L105 156 L102 156 L100 155 L97 155 L96 155 L95 155 L94 155 L94 154 L92 154 L91 154 L90 153 L87 151 L85 150 L83 149 L79 147 L77 145 L76 144 L74 144 L74 143 L74 142 L73 142 L73 141 L72 139 L71 138 L71 137 L71 136 L71 135 L70 133 L70 132 L70 131 L70 130 L70 128 L70 126 L70 125  L70 124 L70 123 L70 122 L70 121 L70 120 L71 120 L71 119 L71 118 L72 118 L72 117 L73 117 L73 116 L74 116 L75 116 L75 115 L76 115 L77 114 L78 114 L78 113  L79 113 L80 113 L81 113 L81 112 L82 112 L83 112 L83 111 L84 111 L84 110 L85 110 L86 110 L86 109 L87 109 L88 109 L88 108 L89 108 L90 108 L90 107 L91 107 L91 106 L92 106 L94 106 L94 105 L95 105 L97 104 L98 104 L99 103 L100 103 L101 102 L103 102 L103 101 L104 101 L105 101 L106 101 L106 100 L107 100 L108 100 L109 100 L110 100 L111 100 L112 99 L113 99 L114 99 L114 98 L115 98 L116 98 L117 98 L118 98 L119 98 L119 97 L120 97 L121 97 L122 97 L123 97 L123 96 L124 96 L124 95 L125 95 L126 95 L127 95 L127 94 L128 94 L129 94 L130 94 L131 94 L131 93 L132 93 L133 93 L134 93" id="myAniPath" style="stroke:#ccc;fill:none;stroke-width:3;stroke-linecap:round" />

<g id="planes">
	<image x="-25" y="-25" width="50" height="50" xlink:href="airplane.png" id="airplane">
<animateMotion begin="indefinite" dur="10s" repeatCount="1" rotate="auto" fill="freeze">
<mpath xlink:href="#myAniPath" />
</animateMotion>
</image>
</g>
    <rect id="startButton" x="20" y="20" width="60" height="20" fill="green" onclick="startMotion()" /> 



</svg>